<svg width="38" height="38" viewBox="0 0 38 38" fill="none" xmlns="http://www.w3.org/2000/svg">
<path d="M32.6 19V34.98C32.6 35.1139 32.5736 35.2466 32.5224 35.3703C32.4711 35.4941 32.396 35.6065 32.3013 35.7013C32.2065 35.796 32.0941 35.8711 31.9703 35.9224C31.8466 35.9736 31.7139 36 31.58 36H6.42C6.28605 36 6.15342 35.9736 6.02966 35.9224C5.90591 35.8711 5.79347 35.796 5.69875 35.7013C5.60404 35.6065 5.5289 35.4941 5.47764 35.3703C5.42638 35.2466 5.4 35.1139 5.4 34.98V19M19 36V10.5M19 10.5H11.35C10.2228 10.5 9.14183 10.0522 8.3448 9.2552C7.54777 8.45817 7.1 7.37717 7.1 6.25C7.1 5.12283 7.54777 4.04183 8.3448 3.2448C9.14183 2.44777 10.2228 2 11.35 2C17.3 2 19 10.5 19 10.5ZM19 10.5H26.65C27.7772 10.5 28.8582 10.0522 29.6552 9.2552C30.4522 8.45817 30.9 7.37717 30.9 6.25C30.9 5.12283 30.4522 4.04183 29.6552 3.2448C28.8582 2.44777 27.7772 2 26.65 2C20.7 2 19 10.5 19 10.5ZM34.98 10.5H3.02C2.74948 10.5 2.49004 10.6075 2.29875 10.7988C2.10746 10.99 2 11.2495 2 11.52V17.98C2 18.2505 2.10746 18.51 2.29875 18.7013C2.49004 18.8925 2.74948 19 3.02 19H34.98C35.2505 19 35.51 18.8925 35.7013 18.7013C35.8925 18.51 36 18.2505 36 17.98V11.52C36 11.2495 35.8925 10.99 35.7013 10.7988C35.51 10.6075 35.2505 10.5 34.98 10.5Z" stroke="white" stroke-width="3" stroke-linecap="round" stroke-linejoin="round"/>
</svg>
