<svg width="37" height="37" viewBox="0 0 37 37" fill="none" xmlns="http://www.w3.org/2000/svg">
<g clip-path="url(#clip0_2789_19413)">
<path d="M6.16667 6.16667H15.4167V15.4167H6.16667V6.16667ZM30.8333 6.16667V15.4167H21.5833V6.16667H30.8333ZM21.5833 23.125H24.6667V20.0417H21.5833V16.9583H24.6667V20.0417H27.75V16.9583H30.8333V20.0417H27.75V23.125H30.8333V27.75H27.75V30.8333H24.6667V27.75H20.0417V30.8333H16.9583V24.6667H21.5833V23.125ZM24.6667 23.125V27.75H27.75V23.125H24.6667ZM6.16667 30.8333V21.5833H15.4167V30.8333H6.16667ZM9.25 9.25V12.3333H12.3333V9.25H9.25ZM24.6667 9.25V12.3333H27.75V9.25H24.6667ZM9.25 24.6667V27.75H12.3333V24.6667H9.25ZM6.16667 16.9583H9.25V20.0417H6.16667V16.9583ZM13.875 16.9583H20.0417V23.125H16.9583V20.0417H13.875V16.9583ZM16.9583 9.25H20.0417V15.4167H16.9583V9.25ZM3.08333 3.08333V9.25H0V3.08333C0 2.26558 0.32485 1.48132 0.903087 0.903087C1.48132 0.32485 2.26558 0 3.08333 0L9.25 0V3.08333H3.08333ZM33.9167 0C34.7344 0 35.5187 0.32485 36.0969 0.903087C36.6751 1.48132 37 2.26558 37 3.08333V9.25H33.9167V3.08333H27.75V0H33.9167ZM3.08333 27.75V33.9167H9.25V37H3.08333C2.26558 37 1.48132 36.6751 0.903087 36.0969C0.32485 35.5187 0 34.7344 0 33.9167V27.75H3.08333ZM33.9167 33.9167V27.75H37V33.9167C37 34.7344 36.6751 35.5187 36.0969 36.0969C35.5187 36.6751 34.7344 37 33.9167 37H27.75V33.9167H33.9167Z" fill="white"/>
</g>
<defs>
<clipPath id="clip0_2789_19413">
<rect width="37" height="37" fill="white"/>
</clipPath>
</defs>
</svg>
