<svg width="46" height="46" viewBox="0 0 46 46" fill="none" xmlns="http://www.w3.org/2000/svg">
<path d="M7.66667 7.66667H19.1667V19.1667H7.66667V7.66667ZM38.3333 7.66667V19.1667H26.8333V7.66667H38.3333ZM26.8333 28.75H30.6667V24.9167H26.8333V21.0833H30.6667V24.9167H34.5V21.0833H38.3333V24.9167H34.5V28.75H38.3333V34.5H34.5V38.3333H30.6667V34.5H24.9167V38.3333H21.0833V30.6667H26.8333V28.75ZM30.6667 28.75V34.5H34.5V28.75H30.6667ZM7.66667 38.3333V26.8333H19.1667V38.3333H7.66667ZM11.5 11.5V15.3333H15.3333V11.5H11.5ZM30.6667 11.5V15.3333H34.5V11.5H30.6667ZM11.5 30.6667V34.5H15.3333V30.6667H11.5ZM7.66667 21.0833H11.5V24.9167H7.66667V21.0833ZM17.25 21.0833H24.9167V28.75H21.0833V24.9167H17.25V21.0833ZM21.0833 11.5H24.9167V19.1667H21.0833V11.5ZM3.83333 3.83333V11.5H0V3.83333C0 2.81667 0.403868 1.84165 1.12276 1.12276C1.84165 0.403868 2.81667 0 3.83333 0L11.5 0V3.83333H3.83333ZM42.1667 0C43.1833 0 44.1584 0.403868 44.8772 1.12276C45.5961 1.84165 46 2.81667 46 3.83333V11.5H42.1667V3.83333H34.5V0H42.1667ZM3.83333 34.5V42.1667H11.5V46H3.83333C2.81667 46 1.84165 45.5961 1.12276 44.8772C0.403868 44.1584 0 43.1833 0 42.1667V34.5H3.83333ZM42.1667 42.1667V34.5H46V42.1667C46 43.1833 45.5961 44.1584 44.8772 44.8772C44.1584 45.5961 43.1833 46 42.1667 46H34.5V42.1667H42.1667Z" fill="#002A3A"/>
</svg>
