<svg width="9" height="15" viewBox="0 0 9 15" fill="none" xmlns="http://www.w3.org/2000/svg">
<path d="M0.377862 14.63C0.125954 14.3834 0 14.0695 0 13.6883C0 13.3072 0.125954 12.9933 0.377862 12.7466L5.73664 7.5L0.377862 2.25336C0.125954 2.00673 0 1.69282 0 1.31166C0 0.930493 0.125954 0.616591 0.377862 0.369955C0.62977 0.123318 0.950381 0 1.33969 0C1.72901 0 2.04962 0.123318 2.30153 0.369955L8.62214 6.5583C8.75954 6.69282 8.8571 6.83856 8.91481 6.99551C8.9716 7.15247 9 7.32063 9 7.5C9 7.67937 8.9716 7.84753 8.91481 8.00448C8.8571 8.16143 8.75954 8.30717 8.62214 8.4417L2.30153 14.63C2.04962 14.8767 1.72901 15 1.33969 15C0.950381 15 0.62977 14.8767 0.377862 14.63Z" fill="#05182D"/>
</svg>
