<svg width="25" height="25" viewBox="0 0 25 25" fill="none" xmlns="http://www.w3.org/2000/svg">
<path fill-rule="evenodd" clip-rule="evenodd" d="M0 12.5C0 9.18479 1.31696 6.00537 3.66117 3.66117C6.00537 1.31696 9.18479 0 12.5 0C15.8152 0 18.9946 1.31696 21.3388 3.66117C23.683 6.00537 25 9.18479 25 12.5C25 15.8152 23.683 18.9946 21.3388 21.3388C18.9946 23.683 15.8152 25 12.5 25C9.18479 25 6.00537 23.683 3.66117 21.3388C1.31696 18.9946 0 15.8152 0 12.5ZM12.5 5.83333C12.6585 5.83328 12.8137 5.87841 12.9474 5.96342C13.0811 6.04844 13.1878 6.16982 13.255 6.31333L14.8667 9.75L18.4583 10.3C18.6096 10.3233 18.7515 10.3878 18.8685 10.4865C18.9855 10.5851 19.0731 10.7141 19.1216 10.8592C19.1702 11.0044 19.1778 11.1601 19.1437 11.3093C19.1096 11.4584 19.0351 11.5954 18.9283 11.705L16.3067 14.3933L16.9283 18.2C16.9536 18.3545 16.9349 18.513 16.8743 18.6573C16.8136 18.8017 16.7136 18.926 16.5856 19.0161C16.4575 19.1062 16.3067 19.1584 16.1504 19.1668C15.9941 19.1751 15.8386 19.1393 15.7017 19.0633L12.5 17.2917L9.29833 19.0633C9.16131 19.1394 9.0056 19.1753 8.84908 19.1669C8.69257 19.1585 8.5416 19.1062 8.41351 19.0158C8.28541 18.9255 8.18539 18.8009 8.12492 18.6563C8.06446 18.5117 8.046 18.353 8.07167 18.1983L8.69333 14.3933L6.07 11.705C5.96273 11.5953 5.88782 11.4581 5.85354 11.3086C5.81926 11.159 5.82693 11.0029 5.87571 10.8574C5.92448 10.712 6.01247 10.5828 6.12998 10.4841C6.24749 10.3855 6.38995 10.3212 6.54167 10.2983L10.1317 9.75L11.745 6.31333C11.8122 6.16982 11.9189 6.04844 12.0526 5.96342C12.1863 5.87841 12.3415 5.83328 12.5 5.83333Z" fill="#895E1A"/>
</svg>
